<?xml version="1.0" encoding="utf-8"?>
<svg viewBox="111 100 400 400" xmlns="http://www.w3.org/2000/svg" xmlns:bx="https://boxy-svg.com">
  <defs>
    <bx:grid x="-109.056" y="218.113" width="100" height="100"/>
  </defs>
  <path style="fill: rgb(255, 119, 0);" transform="matrix(-0.895434, 0.445194, -0.445194, -0.895434, 1163.873286, 331.21011)" d="M 752.709 209.001 A 130.54 130.54 0 0 1 752.709 408.999 A 253.894 253.894 0 0 0 752.709 209.001 Z" bx:shape="crescent 668.8 309 130.54 100 0.9 1@02d87e20"/>
  <path style="fill: rgb(255, 119, 0);" transform="matrix(-0.99386, -0.110644, 0.110644, -0.99386, 1010.774328, 789.713754)" d="M 752.709 209.001 A 130.54 130.54 0 0 1 752.709 408.999 A 253.894 253.894 0 0 0 752.709 209.001 Z" bx:shape="crescent 668.8 309 130.54 100 0.9 1@02d87e20"/>
  <path style="fill: rgb(255, 119, 0);" transform="matrix(-0.776231, -0.630448, 0.630448, -0.776231, 634.417528, 1091.931366)" d="M 752.709 209.001 A 130.54 130.54 0 0 1 752.709 408.999 A 253.894 253.894 0 0 0 752.709 209.001 Z" bx:shape="crescent 668.8 309 130.54 100 0.9 1@02d87e20"/>
  <path style="fill: rgb(255, 119, 0);" transform="matrix(-0.309494, -0.950901, 0.950901, -0.309494, 152.150971, 1142.408682)" d="M 752.709 209.001 A 130.54 130.54 0 0 1 752.709 408.999 A 253.894 253.894 0 0 0 752.709 209.001 Z" bx:shape="crescent 668.8 309 130.54 100 0.9 1@02d87e20"/>
  <path style="fill: rgb(255, 119, 0);" transform="matrix(0.25441, -0.967096, 0.967096, 0.25441, -279.008665, 924.064536)" d="M 752.709 209.001 A 130.54 130.54 0 0 1 752.709 408.999 A 253.894 253.894 0 0 0 752.709 209.001 Z" bx:shape="crescent 668.8 309 130.54 100 0.9 1@02d87e20"/>
  <path style="fill: rgb(255, 119, 0);" transform="matrix(0.737752, -0.675072, 0.675072, 0.737752, -523.610397, 506.585466)" d="M 752.709 209.001 A 130.54 130.54 0 0 1 752.709 408.999 A 253.894 253.894 0 0 0 752.709 209.001 Z" bx:shape="crescent 668.8 309 130.54 100 0.9 1@02d87e20"/>
  <path style="fill: rgb(255, 119, 0);" transform="matrix(0.985438, -0.170038, 0.170038, 0.985438, -503.611385, 25.543877)" d="M 752.709 209.001 A 130.54 130.54 0 0 1 752.709 408.999 A 253.894 253.894 0 0 0 752.709 209.001 Z" bx:shape="crescent 668.8 309 130.54 100 0.9 1@02d87e20"/>
  <path style="fill: rgb(255, 119, 0);" transform="matrix(0.921417, 0.388576, -0.388576, 0.921417, -226.561649, -369.362932)" d="M 752.709 209.001 A 130.54 130.54 0 0 1 752.709 408.999 A 253.894 253.894 0 0 0 752.709 209.001 Z" bx:shape="crescent 668.8 309 130.54 100 0.9 1@02d87e20"/>
  <path style="fill: rgb(255, 119, 0);" transform="matrix(0.566155, 0.824299, -0.824299, 0.566155, 219.107955, -551.965942)" d="M 752.709 209.001 A 130.54 130.54 0 0 1 752.709 408.999 A 253.894 253.894 0 0 0 752.709 209.001 Z" bx:shape="crescent 668.8 309 130.54 100 0.9 1@02d87e20"/>
  <path style="fill: rgb(255, 119, 0);" transform="matrix(0.030551, 0.999533, -0.999533, 0.030551, 693.884553, -464.656556)" d="M 752.709 209.001 A 130.54 130.54 0 0 1 752.709 408.999 A 253.894 253.894 0 0 0 752.709 209.001 Z" bx:shape="crescent 668.8 309 130.54 100 0.9 1@02d87e20"/>
  <path style="fill: rgb(255, 119, 0);" transform="matrix(-0.513032, 0.85837, -0.85837, -0.513032, 1045.116788, -136.0029)" d="M 752.709 209.001 A 130.54 130.54 0 0 1 752.709 408.999 A 253.894 253.894 0 0 0 752.709 209.001 Z" bx:shape="crescent 668.8 309 130.54 100 0.9 1@02d87e20"/>
  <circle style="fill: rgb(255, 119, 0);" cx="308" cy="300" r="44"/>
</svg>