<?xml version="1.0" encoding="utf-8"?>
<svg viewBox="0 0 500 500" xmlns="http://www.w3.org/2000/svg" xmlns:bx="https://boxy-svg.com">
  <rect width="500" height="500" style="fill: rgb(135, 206, 235); paint-order: stroke markers;"/>
  <path d="M 101.178 -43.37 L 200.368 74.69 L 1.988 74.69 L 101.178 -43.37 Z" style="fill: rgb(255, 255, 255); paint-order: fill;" transform="matrix(0.00109, 0.999999, -0.999999, 0.00109, 242.969818, 150.217804)" bx:shape="triangle 1.988 -43.37 198.38 118.06 0.5 0 1@4702c535"/>
  <path d="M 29.125 -0.382 L 39.885 40.573 L 18.365 40.573 L 29.125 -0.382 Z" style="fill: rgb(255, 255, 255);" transform="matrix(0.000252, 1, -1, 0.000252, 426.051788, 221.569229)" bx:shape="triangle 18.365 -0.382 21.52 40.955 0.5 0 1@8f33aefd"/>
  <rect x="187.117" y="240.201" width="197.83" height="20.551" style="fill: rgb(255, 255, 255); paint-order: stroke; stroke: rgb(255, 255, 255);"/>
  <path d="M 64.308 -69.386 L 127.353 119.499 L 1.263 119.499 L 64.308 -69.386 Z" style="fill: rgb(255, 255, 255); paint-order: fill;" transform="matrix(0.00109, 0.999999, -0.999999, 0.00109, 273.130798, 186.203751)" bx:shape="triangle 1.263 -69.386 126.09 188.885 0.5 0 1@70c6fab3"/>
  <path d="M 25.565 -0.406 L 35.01 43.257 L 16.12 43.257 L 25.565 -0.406 Z" style="fill: rgb(255, 255, 255);" transform="matrix(-0.005048, -0.999987, 0.999971, -0.008202, 75.658104, 278.69458)" bx:shape="triangle 16.12 -0.406 18.89 43.663 0.5 0 1@feb2cd65"/>
  <rect x="117.762" y="244.026" width="82.238" height="17.326" style="fill: rgb(255, 255, 255); paint-order: stroke; stroke: rgb(255, 255, 255);"/>
  <rect x="138.183" y="153.106" width="31.164" height="196.358" style="fill: rgb(255, 255, 255); paint-order: stroke; stroke: rgb(255, 255, 255);"/>
</svg>