<?xml version="1.0" encoding="utf-8"?>
<svg viewBox="0 0 500 500" xmlns="http://www.w3.org/2000/svg" xmlns:xlink="http://www.w3.org/1999/xlink" xmlns:bx="https://boxy-svg.com">
  <defs>
    <bx:grid x="0" y="0" width="56.361" height="58.465"/>
  </defs>
  <rect width="500" height="500" style="paint-order: stroke markers; fill: rgb(57, 67, 137);" transform="matrix(1, 0, 0, 1, 0, 0)"/>
  <g transform="matrix(1, 0, 0, 1, 3, 0)">
    <g transform="matrix(0.965926, -0.258819, 0.258819, 0.965926, -55.067974, 71.924904)">
      <path d="M 425.649 493.134 L 457.369 526.421 L 393.928 526.421 L 425.649 493.134 Z" style="fill-rule: nonzero; paint-order: fill; fill: rgb(255, 165, 0); stroke: rgb(255, 165, 0);" transform="matrix(0.004777, 0.999989, -0.999989, 0.004777, 948.060181, -177.571243)" bx:shape="triangle 393.928 493.134 63.441 33.287 0.5 0 1@b48b2216"/>
      <path d="M 28.145 2.05 Q 28.589 -0.585 29.032 2.05 L 38.706 59.511 Q 39.15 62.146 38.263 62.146 L 18.914 62.146 Q 18.027 62.146 18.471 59.511 Z" style="fill-rule: nonzero; paint-order: stroke; stroke: #FFFFFF; fill: #FFFFFF;" transform="matrix(0.000252, 1, -1, 0.000252, 499.405121, 221.192856)" bx:shape="triangle 18.027 -0.585 21.123 62.731 0.5 0.042 1@e2c04bdc"/>
      <path d="M 132.001 -69.871 L 261.408 120.326 L 2.594 120.326 L 132.001 -69.871 Z" style="fill-rule: nonzero; paint-order: stroke; stroke: #FFFFFF; fill: #FFFFFF;" transform="matrix(0.00109, 0.999999, -0.999999, 0.00109, 229.985153, 118.102524)" bx:shape="triangle 2.594 -69.871 258.814 190.197 0.5 0 1@c476ed7b"/>
      <rect x="239" y="239.35" width="199.035" height="20.9" style="stroke: #FFFFFF; fill-rule: nonzero; paint-order: fill; fill: #FFFFFF;"/>
      <path d="M 50.958 -55.46 L 100.915 95.513 L 1 95.513 L 50.958 -55.46 Z" style="fill-rule: nonzero; paint-order: fill; stroke: #FFFFFF; fill: #FFFFFF;" transform="matrix(0.00109, 0.999999, -0.999999, 0.00109, 306.693542, 198.980148)" bx:shape="triangle 1 -55.46 99.915 150.973 0.5 0 1@b603829c"/>
      <path d="M 34.924 -1.015 L 47.826 108.044 L 22.021 108.044 L 34.924 -1.015 Z" style="fill-rule: nonzero; paint-order: fill; stroke: #FFFFFF; fill: #FFFFFF;" transform="matrix(-0.005048, -0.999987, 0.999971, -0.008202, -7.799182, 286.346558)" bx:shape="triangle 22.021 -1.015 25.805 109.059 0.5 0 1@3cd593c8"/>
      <rect x="87.35" y="120.6" width="21.706" height="259.5" style="stroke: #FFFFFF; fill-rule: nonzero; paint-order: fill; fill: #FFFFFF;"/>
      <path d="M 11.992 25.706 Q 13.885 -0.665 15.778 25.706 L 17.122 44.431 Q 19.015 70.802 15.229 70.802 L 12.541 70.802 Q 8.755 70.802 10.648 44.431 Z" style="fill-rule: nonzero; paint-order: fill; transform-box: fill-box; transform-origin: 50% 50%; fill: rgb(255, 165, 0); stroke: rgb(255, 165, 0);" transform="matrix(0.005223, 0.999986, -0.99997, 0.008377, 63.53728, 209.11144)" bx:shape="triangle 8.755 -0.665 10.26 71.467 0.5 0.369 1@6049fec9"/>
      <rect x="-8.604" y="246.825" width="78.042" height="7.902" style="fill-rule: nonzero; paint-order: fill; fill: rgb(255, 165, 0); stroke: rgb(255, 165, 0);" rx="10.45" ry="10.45"/>
    </g>
    <g style="transform-origin: 250px 250px;" transform="matrix(-0.981627, -0.190809, 0.190809, -0.981627, -0.000007, 0.00002)">
      <text style="fill: rgb(255, 255, 255); font-family: Copperplate; font-size: 32px; letter-spacing: 2.5px; word-spacing: 10px; white-space: pre;" x="80.667" y="43.876"><textPath xlink:href="#path-0">FAIR DATA OWNERSHIP</textPath></text>
      <path d="M 470 250 A 220 220 0 0 1 250 470 A 220 220 0 0 1 30 250 A 220 220 0 0 1 250 30 A 220 220 0 0 1 470 250 Z" style="fill: rgb(216, 216, 216); stroke: rgb(0, 0, 0); fill-opacity: 0; paint-order: stroke; stroke-opacity: 0;" id="path-0"/>
    </g>
    <g style="transform-origin: 241.289px 235.024px;" transform="matrix(0.951057, 0.309017, -0.309017, 0.951057, -0.000016, 0.000015)">
      <path d="M 469.737 250.15 C 469.737 371.653 371.24 470.15 249.737 470.15 C 128.234 470.15 29.737 371.653 29.737 250.15 C 29.737 128.647 128.234 30.15 249.737 30.15 C 371.24 30.15 469.737 128.647 469.737 250.15 Z" style="fill: rgb(216, 216, 216); stroke: rgb(0, 0, 0); transform-box: fill-box; transform-origin: 50% 50%; fill-opacity: 0; stroke-opacity: 0;" id="path-1" transform="matrix(0.999391, -0.0349, 0.0349, 0.999391, -0.000001, 0)"/>
      <text style="fill: rgb(255, 255, 255); font-family: Copperplate; font-size: 23px; letter-spacing: 2.5px; word-spacing: 8.3px; white-space: pre; transform-box: fill-box; transform-origin: 246.371px 252.473px;" transform="matrix(0.999848, 0.017452, -0.017452, 0.999848, 0.000017, 0.000019)" x="-12.614" y="490.357"><textPath xlink:href="#path-1">INDEPENDENT SOFTWARE DEVELOPMENT</textPath></text>
      <text style="fill: rgb(255, 255, 255); font-family: Arial, sans-serif; font-size: 16.8px; white-space: pre; transform-box: fill-box; transform-origin: 50% 50%;" transform="matrix(0.999391, -0.0349, 0.0349, 0.999391, -0.313739, -7.733999)"><textPath xlink:href="#path-1">I</textPath></text>
    </g>
  </g>
</svg>