<?xml version="1.0" encoding="utf-8"?>
<svg viewBox="0 0 500 500" xmlns="http://www.w3.org/2000/svg" xmlns:bx="https://boxy-svg.com">
  <rect width="500" height="500" style="fill: rgb(135, 206, 235); paint-order: stroke markers;" x="-0.054"/>
  <path d="M 153.006 -69.334 L 303.005 119.409 L 3.006 119.409 L 153.006 -69.334 Z" style="fill: rgb(255, 255, 255); paint-order: fill;" transform="matrix(0.00109, 0.999999, -0.999999, 0.00109, 185.017578, 96.967186)" bx:shape="triangle 3.006 -69.334 299.999 188.743 0.5 0 1@738ea9a6"/>
  <path d="M 52.422 -0.762 L 71.789 81.048 L 33.055 81.048 L 52.422 -0.762 Z" style="fill: rgb(255, 255, 255);" transform="matrix(0.000252, 1, -1, 0.000252, 496.214478, 197.190521)" bx:shape="triangle 33.055 -0.762 38.734 81.81 0.5 0 1@8739da0c"/>
  <rect x="127.439" y="230.523" width="287.17" height="37.8" style="fill: rgb(255, 255, 255); paint-order: stroke; stroke: rgb(255, 255, 255);"/>
  <path d="M 64.308 -79.854 L 127.353 137.527 L 1.263 137.527 L 64.308 -79.854 Z" style="fill: rgb(255, 255, 255); paint-order: fill;" transform="matrix(0.00109, 0.999999, -0.999999, 0.00109, 297.072815, 185.646454)" bx:shape="triangle 1.263 -79.854 126.09 217.381 0.5 0 1@f466d004"/>
  <path d="M 52.422 -0.847 L 71.789 90.084 L 33.055 90.084 L 52.422 -0.847 Z" style="fill: rgb(255, 255, 255);" transform="matrix(-0.005048, -0.999987, 0.999971, -0.008202, -23.172766, 303.033478)" bx:shape="triangle 33.055 -0.847 38.734 90.931 0.5 0 1@2bea97e0"/>
</svg>