<?xml version="1.0" encoding="utf-8"?>
<svg viewBox="0 0 500 500" xmlns="http://www.w3.org/2000/svg" xmlns:bx="https://boxy-svg.com">
  <defs>
    <bx:grid x="0" y="0" width="56.361" height="58.465"/>
  </defs>
  <rect width="500" height="500" style="paint-order: stroke markers; fill: rgb(57, 67, 137);" transform="matrix(1, 0, 0, 1, 0, 0)"/>
  <g transform="matrix(1, 0, 0, 1, 3, 0)">
    <g transform="matrix(0.990268, -0.139173, 0.139173, 0.990268, 0.878237, -3.821759)" style="transform-origin: 259.704px 250.35px;">
      <path d="M 23.267 1.107 Q 23.634 -0.316 24.001 1.107 L 31.998 32.144 Q 32.365 33.567 31.632 33.567 L 15.636 33.567 Q 14.903 33.567 15.27 32.144 Z" style="fill-rule: nonzero; paint-order: stroke; fill: rgb(255, 165, 0); stroke: rgb(255, 165, 0);" transform="matrix(-0.001973, 0.99999805, -1.0000069, 0.00251203, 237.62756348, 147.55635071)" bx:shape="triangle 14.903 -0.316 17.462 33.883 0.5 0.042 1@22e65b02"/>
      <rect x="66.109" y="134.936" width="136.977" height="17.278" style="stroke: rgb(255, 255, 255); fill-rule: nonzero; paint-order: fill; fill: rgb(255, 255, 255);" transform="matrix(0.999997, -0.002256, -0.002221, 1.000008, 16.481541, 28.042849)"/>
      <path d="M 23.267 1.107 Q 23.634 -0.316 24.001 1.107 L 31.998 32.144 Q 32.365 33.567 31.632 33.567 L 15.636 33.567 Q 14.903 33.567 15.27 32.144 Z" style="fill-rule: nonzero; paint-order: stroke; fill: rgb(255, 165, 0); stroke: rgb(255, 165, 0);" transform="matrix(-0.001973, 0.99999805, -1.0000069, 0.00251203, 237.83561707, 173.17529297)" bx:shape="triangle 14.903 -0.316 17.462 33.883 0.5 0.042 1@22e65b02"/>
      <rect x="66.197" y="154.45" width="136.977" height="17.278" style="stroke: rgb(255, 255, 255); fill-rule: nonzero; paint-order: fill; fill: rgb(255, 255, 255);" transform="matrix(0.999997, -0.002256, -0.002221, 1.000008, 16.636776, 34.123634)"/>
      <path d="M 23.267 1.107 Q 23.634 -0.316 24.001 1.107 L 31.998 32.144 Q 32.365 33.567 31.632 33.567 L 15.636 33.567 Q 14.903 33.567 15.27 32.144 Z" style="fill-rule: nonzero; paint-order: stroke; fill: rgb(255, 165, 0); stroke: rgb(255, 165, 0);" transform="matrix(-0.001973, 0.99999805, -1.0000069, 0.002512, 237.43777466, 280.38369751)" bx:shape="triangle 14.903 -0.316 17.462 33.883 0.5 0.042 1@22e65b02"/>
      <rect x="66.109" y="134.936" width="136.977" height="17.278" style="stroke: rgb(255, 255, 255); fill-rule: nonzero; paint-order: fill; fill: rgb(255, 255, 255);" transform="matrix(0.999997, -0.002256, -0.002221, 1.000008, 16.291662, 160.868927)"/>
      <path d="M 23.267 1.107 Q 23.634 -0.316 24.001 1.107 L 31.998 32.144 Q 32.365 33.567 31.632 33.567 L 15.636 33.567 Q 14.903 33.567 15.27 32.144 Z" style="fill-rule: nonzero; paint-order: stroke; fill: rgb(255, 165, 0); stroke: rgb(255, 165, 0);" transform="matrix(-0.001973, 0.99999805, -1.0000069, 0.002512, 237.64584351, 306.00360107)" bx:shape="triangle 14.903 -0.316 17.462 33.883 0.5 0.042 1@22e65b02"/>
      <rect x="66.197" y="154.45" width="136.977" height="17.278" style="stroke: rgb(255, 255, 255); fill-rule: nonzero; paint-order: fill; fill: rgb(255, 255, 255);" transform="matrix(0.999997, -0.002256, -0.002221, 1.000008, 16.44689, 166.949722)"/>
      <path d="M 132.001 -55.84 L 261.408 96.164 L 2.594 96.164 L 132.001 -55.84 Z" style="fill-rule: nonzero; paint-order: stroke; stroke: rgb(255, 255, 255); fill: rgb(255, 255, 255);" transform="matrix(0.00109, 0.99999941, -0.99999941, 0.00109, 220.95527649, 118.23596191)" bx:shape="triangle 2.594 -55.84 258.814 152.004 0.5 0 1@5c616451"/>
      <rect x="87.35" y="120.6" width="37.269" height="259.5" style="stroke: rgb(255, 255, 255); fill-rule: nonzero; paint-order: fill; fill: rgb(255, 255, 255);"/>
      <rect x="239" y="239.35" width="190.804" height="25.157" style="stroke: rgb(255, 255, 255); fill-rule: nonzero; paint-order: fill; fill: rgb(255, 255, 255);"/>
      <path d="M 50.958 -75.466 L 100.915 129.967 L 1 129.967 L 50.958 -75.466 Z" style="fill-rule: nonzero; paint-order: fill; stroke: rgb(255, 255, 255); fill: rgb(255, 255, 255);" transform="matrix(0.00109, 0.99999941, -0.99999941, 0.00109, 310.60458374, 200.70892334)" bx:shape="triangle 1 -75.466 99.915 205.433 0.5 0 1@9393c7ca"/>
      <path d="M 40.97 26.002 Q 49.802 -0.514 58.634 26.002 L 59.37 28.212 Q 68.202 54.728 50.538 54.728 L 49.066 54.728 Q 31.402 54.728 40.234 28.212 Z" style="fill-rule: nonzero; paint-order: fill; fill: rgb(255, 255, 255); stroke: rgb(255, 255, 255); transform-box: fill-box; transform-origin: 50% 50%;" transform="matrix(0.005223, 0.999986, -0.99997, 0.008377, 391.55104, 218.1403)" bx:shape="triangle 31.402 -0.514 36.8 55.242 0.5 0.48 1@d7f093b1"/>
      <path d="M 11.992 25.706 Q 13.885 -0.665 15.778 25.706 L 17.122 44.431 Q 19.015 70.802 15.229 70.802 L 12.541 70.802 Q 8.755 70.802 10.648 44.431 Z" style="fill-rule: nonzero; paint-order: fill; fill: rgb(255, 165, 0); stroke: rgb(255, 165, 0); transform-origin: 13.885px 41.661px;" transform="matrix(0.005223, 0.999986, -0.99997, 0.008377, 119.431075, 275.774571)" bx:shape="triangle 8.755 -0.665 10.26 71.467 0.5 0.369 1@6049fec9"/>
      <rect x="58.67" y="313.407" width="68.042" height="7.902" style="fill-rule: nonzero; paint-order: fill; fill: rgb(255, 165, 0); stroke: rgb(255, 165, 0);" rx="3.951" ry="3.951"/>
      <path d="M 11.992 25.706 Q 13.885 -0.665 15.778 25.706 L 17.122 44.431 Q 19.015 70.802 15.229 70.802 L 12.541 70.802 Q 8.755 70.802 10.648 44.431 Z" style="fill-rule: nonzero; paint-order: fill; fill: rgb(255, 165, 0); stroke: rgb(255, 165, 0); transform-origin: 13.885px 41.661px;" transform="matrix(0.005223, 0.999986, -0.99997, 0.008377, 118.755898, 142.735408)" bx:shape="triangle 8.755 -0.665 10.26 71.467 0.5 0.369 1@6049fec9"/>
      <rect x="57.989" y="180.326" width="68.042" height="7.902" style="fill-rule: nonzero; paint-order: fill; fill: rgb(255, 165, 0); stroke: rgb(255, 165, 0);" rx="3.951" ry="3.951"/>
    </g>
    <g style="transform-origin: 250px 250px;" transform="matrix(-0.981627, -0.190809, 0.190809, -0.981627, -0.000007, 0.00002)">
      <text style="fill: rgb(255, 255, 255); font-family: Copperplate; font-size: 32px; letter-spacing: 2.5px; word-spacing: 10px; white-space: pre;" x="80.667" y="43.876"><textPath href="#path-0">FAIR DATA OWNERSHIP</textPath></text>
      <path d="M 470 250 A 220 220 0 0 1 250 470 A 220 220 0 0 1 30 250 A 220 220 0 0 1 250 30 A 220 220 0 0 1 470 250 Z" style="fill: rgb(216, 216, 216); stroke: rgb(0, 0, 0); fill-opacity: 0; paint-order: stroke; stroke-opacity: 0;" id="path-0"/>
    </g>
    <g style="transform-origin: 241.289px 235.024px;" transform="matrix(0.951057, 0.309017, -0.309017, 0.951057, 0.162148, 0.15741)">
      <path d="M 469.737 250.15 C 469.737 371.653 371.24 470.15 249.737 470.15 C 128.234 470.15 29.737 371.653 29.737 250.15 C 29.737 128.647 128.234 30.15 249.737 30.15 C 371.24 30.15 469.737 128.647 469.737 250.15 Z" style="fill: rgb(216, 216, 216); stroke: rgb(0, 0, 0); transform-box: fill-box; transform-origin: 50% 50%; fill-opacity: 0; stroke-opacity: 0;" id="path-1" transform="matrix(0.999391, -0.0349, 0.0349, 0.999391, -0.000001, 0)"/>
      <text style="fill: rgb(255, 255, 255); font-family: Copperplate; font-size: 23px; letter-spacing: 2.5px; word-spacing: 8.3px; white-space: pre; transform-box: fill-box; transform-origin: 246.371px 252.473px;" transform="matrix(0.999848, 0.017452, -0.017452, 0.999848, 0.000017, 0.000019)" x="-12.614" y="490.357"><textPath href="#path-1">INDEPENDENT SOFTWARE DEVELOPMENT</textPath></text>
      <text style="fill: rgb(255, 255, 255); font-family: Arial, sans-serif; font-size: 16.8px; white-space: pre; transform-box: fill-box; transform-origin: 50% 50%;" transform="matrix(0.999391, -0.0349, 0.0349, 0.999391, -0.313739, -7.733999)"><textPath href="#path-1">I</textPath></text>
      <text style="fill: rgb(255, 255, 255); font-family: Copperplate, sans-serif; font-size: 38px; line-height: 60.7999px; white-space: pre;" transform="matrix(0.951057, -0.309017, 0.309017, 0.951057, 135.962708, 110.433998)">Beyond</text>
      <text style="fill: rgb(255, 255, 255); font-family: Copperplate, sans-serif; font-size: 38px; line-height: 63.9999px; white-space: pre;" transform="matrix(0.951057, -0.309017, 0.309017, 0.951057, 85.913155, 169.848236)">Decentralized</text>
    </g>
  </g>
</svg>