<?xml version="1.0" encoding="utf-8"?>
<svg version="1.1" id="Layer_1" width="607.991" height="613.264" viewBox="0 0 607.991 613.264" overflow="visible" enable-background="new 0 0 607.991 613.264" xmlns="http://www.w3.org/2000/svg">
  <polygon fill="#FFFFFF" points="582.883 612.615 25.095 612.615 20.168 612.152 15.656 610.563 11.431 608.282 7.935 604.849 4.843 601.09 2.708 596.75 1.156 591.63 0.648 586.386 0.648 26.999 1.156 21.74 2.708 16.724 4.843 12.402 7.935 8.411 11.431 5.319 15.656 2.7 20.168 1.101 25.095 0.648 582.883 0.648 587.816 1.101 592.445 2.7 596.654 5.319 600.047 8.408 603.142 12.402 605.277 16.724 606.818 21.74 607.343 26.999 607.343 586.386 606.818 591.623 605.277 596.75 603.142 601.09 600.047 604.842 596.654 608.282 592.445 610.563 587.816 612.152 582.883 612.615"/>
  <path d="M 24.37 14.685 C 23.78 14.732 22.68 14.841 21.461 14.949 C 20.674 15.232 20.376 15.336 19.64 15.592 C 18.802 16.111 18.248 16.45 17.517 16.903 C 16.913 17.44 16.539 17.782 15.851 18.384 C 15.311 19.078 15.034 19.432 14.47 20.155 C 14.077 20.96 13.894 21.323 13.532 22.052 C 13.279 22.882 13.137 23.35 12.847 24.305 C 12.733 25.507 12.638 26.411 12.57 27.138 C 12.57 28.732 12.57 583.979 12.57 585.57 C 12.639 586.31 12.733 587.245 12.853 588.47 C 13.144 589.438 13.292 589.929 13.56 590.828 C 13.882 591.477 14.01 591.719 14.378 592.468 C 15.067 593.319 15.527 593.866 15.938 594.363 C 16.347 594.779 16.787 595.192 17.548 595.941 C 18.355 596.382 18.709 596.585 19.276 596.874 C 19.985 597.131 20.525 597.317 21.461 597.654 C 22.68 597.759 23.787 597.864 24.37 597.919 C 25.467 597.919 581.195 597.919 582.303 597.919 C 582.892 597.864 584.021 597.759 585.252 597.643 C 586.208 597.318 586.77 597.123 587.525 596.861 C 588.072 596.571 588.363 596.413 589.131 595.989 C 589.887 595.25 590.295 594.814 590.676 594.44 C 591.049 593.97 591.564 593.347 592.29 592.475 C 592.649 591.721 592.774 591.487 593.1 590.828 C 593.364 589.949 593.522 589.446 593.814 588.471 C 593.938 587.246 594.035 586.311 594.112 585.571 C 594.112 583.98 594.112 28.733 594.112 27.139 C 594.043 26.412 593.938 25.509 593.828 24.306 C 593.537 23.351 593.378 22.87 593.121 22.054 C 592.761 21.317 592.596 20.96 592.186 20.156 C 591.604 19.397 591.287 18.987 590.76 18.292 C 590.114 17.73 589.769 17.418 589.152 16.848 C 588.438 16.395 587.982 16.126 587.171 15.614 C 586.374 15.339 586.057 15.234 585.252 14.95 C 584.041 14.844 582.892 14.735 582.317 14.687 C 581.201 14.685 25.446 14.685 24.37 14.685 Z" style="fill: rgb(22, 106, 180);"/>
  <path fill="#FFFFFF" d="M 326.375 450.165 L 326.375 344.781 L 510.01 411.394 L 510.01 358.702 L 326.375 251.81 L 326.375 121.588 C 326.375 108.285 315.636 97.5 302.388 97.5 C 289.136 97.5 278.401 108.285 278.401 121.588 L 278.401 252.944 L 96.262 359.454 L 96.262 411.394 L 278.401 345.905 L 278.401 451.287 L 240.175 479.892 L 240.175 519.788 L 302.388 499.845 L 370.594 519.035 L 370.594 483.657 L 326.375 450.165 Z" style=""/>
</svg>